<svg id="Capa_1" xmlns="http://www.w3.org/2000/svg" viewBox="0 0 942.59 190.45"><defs><style>.cls-3{fill:#e57534}.cls-7{fill:#0e74ba}.cls-8{fill:#044169}</style></defs><path d="M69.7 84.99c-7.38.72-14.21 1.11-20.94 2.15-3.24.5-5.05 3.8-7.41 5.91-9.51 8.52-18.89 17.2-28.32 25.82-.25.23-.56.38-1.02.33l27.42-24.87c2.38-2.16 4.94-4.16 7.07-6.54 1.84-2.06 4.21-1.64 6.34-1.89 5.28-.61 10.61-.85 15.92-1.22.14-.01.29.09.94.32Z" style="stroke:#e57534;stroke-miterlimit:10;stroke-width:2px;fill:#e57534"/><path d="m134.32 36.23 10.86-3.14c-.91 3.73-1.79 7.29-2.67 10.86-.07 0-.17.04-.19.02-2.35-3.51-4.32-2.67-7.24-.18-15.25 13.01-30.63 25.86-46.22 38.47-2.81 2.27-7.09 1.33-10.66 2.07-1.21.25-2.47.27-3.68.54-.56.12-.87.11-.97-.45-.08-.49-.02-.9.67-.99 3.3-.43 6.58-1.17 9.89-1.3 4.92-.2 7.46-4.02 10.7-6.65 9.74-7.89 19.31-16.01 28.94-24.03 4.5-3.75 9.02-7.5 13.53-11.24.51-.42.25-.74-.1-1.08-.92-.92-1.84-1.85-2.87-2.9Z" style="stroke:#e57534;stroke-miterlimit:10;fill:#e57534"/><path class="cls-7" d="M179.09 71.33c-.18 35.85-22.28 54.96-42.64 59.56-18.16 4.1-34.81-.15-49.38-11.88-2.86-2.3-5.52-4.88-7.52-8.03C63.86 86.3 63.46 62.1 82.74 39.17c8.84-10.51 20.73-16.42 34.44-17.97 17.5-1.98 32.79 3.28 45.35 15.62 11.06 10.86 16.48 24.26 16.56 34.51Zm-47.63 53.58c11.28-1.77 22.91-7.91 31.46-19.33 8.52-11.38 11.3-24.23 9.05-38.13-1.86-11.47-7.38-21.07-16.14-28.7-11.62-10.11-25.2-13.7-40.37-11.66-17.88 2.4-43.94 20.11-41.4 53.87 1.46 19.4 19.97 47.51 57.4 43.95Z"/><path class="cls-8" d="M60.43 121.23h3.43c.06.35.17.71.17 1.06.02 17.8.04 35.6.05 53.4H42.12v-54.47h18.31ZM102.77 128.94c0 10.74.02 21.48.03 32.22 0 4.44.02 8.89.01 13.33 0 .29-.11.57-.16.86l-.05.05.06-.04c-.12.11-.25.32-.37.32-7.17.02-14.33.01-21.56.01v-60.81c3.89 4.02 8.32 7.3 13.39 9.94 2.68 1.39 5.52 2.57 8.29 3.85.12.09.24.17.36.26Z"/><path class="cls-7" d="M118.72 175.7v-42.34c7.49.32 14.79-.46 22.15-1.77v44.11h-22.15ZM28.12 175.69c-4.9 0-9.73 0-14.57-.02-.17 0-.49-.3-.49-.45-.02-11.7-.02-23.41-.02-35.17h15.08v35.65ZM158.01 28.25c-1.37-3.89 1.66-5.78 3.7-8.05 5.61-6.24 11.25-12.44 16.95-18.59 2.03-2.19 5.55-2.1 7.69 0 2.17 2.12 1.82 5.35-.67 8.05-6.19 6.71-12.32 13.48-18.48 20.23-1.46 1.6-3.27 2.18-5.38 1.69-1.84-.43-3.17-1.51-3.81-3.33Z"/><path class="cls-8" d="M10.6 85.88c6.28-6.93 10.34-15.19 14.18-23.59.12-.26.31-.67.51-.69 2.65-.29 5.19.12 7.42 1.63 1.69 1.14 1.51 2.89 1.14 4.59-1.35 6.09-4.28 11.65-6.19 18.26 1.6-1.95 2.88-3.41 4.06-4.94 4.42-5.81 7.69-12.28 10.69-18.89.21-.46.36-1.01 1.01-.96 2.74.21 4.87 1.55 6.47 3.71 1.33 1.8.77 3.56-.26 5.35-5.15 9-10.73 17.67-18.84 24.35-2.44 2.01-5.44 2.56-8.57 2.11-3.91-.56-4.84-2.26-4.54-8.29-2.05 2.34-3.91 4.64-6.3 6.39-2.09 1.52-4.38 2.42-7.01 1.87C.4 95.94-.74 93.42.45 88.39c1.88-7.96 5.38-15.54 6.18-23.7.39-3.91 2.26-3.34 4.64-2.92 4.67.84 6.07 2.5 5.22 6.25-1.27 5.57-3.83 10.71-5.57 16.12-.17.53-.32 1.06-.47 1.59-.03.1-.06.21-.16.52l.31-.37Zm8.56-.33c-.38 1.58-.75 2.91-1.03 4.26-.75 3.66.75 5.96 4.17 6.4 3.26.42 6.28-.28 8.76-2.46 7.72-6.79 13.29-15.22 18.26-24.11.86-1.53 1.1-3-.03-4.43-1.47-1.88-3.36-3.1-5.79-3.3-.18-.01-.45.4-.58.66-2.16 4.18-4.2 8.43-6.48 12.55-1.3 2.35-2.89 4.56-4.52 6.7-1.61 2.12-3.42 4.08-5.15 6.11 1.7-6.08 3.89-11.9 5.85-17.79 1.91-5.73.61-7.47-5.44-8.04-1.21-.11-1.78.17-2.31 1.31-1.66 3.59-3.39 7.14-5.27 10.62-2.8 5.18-6.13 9.99-10.52 14.32.14-.56.2-.88.3-1.18 2.01-5.77 4.1-11.52 6.01-17.33.6-1.82 1.67-3.99-.01-5.65-2.09-2.05-4.95-2.07-7.73-2.06-.09.91-.12 1.71-.25 2.51-1.3 8.14-4.44 15.79-6.34 23.77-1.23 5.15.19 7.69 4.51 7.91 2.1.1 3.95-.71 5.58-1.99 3.1-2.43 5.5-5.52 8.02-8.78Zm-1.45 3.08.05-.05s-.06-.04-.09-.05c-.01 0-.03.03-.05.04.03.02.06.04.09.05Z"/><path class="cls-3" d="M49.33 55.11c-7.41.06-12.37-2.65-13.3-7.44-.65-3.31.79-5.97 3.37-7.86 2.98-2.19 6.39-3.04 10.03-1.8.98.33.78 1.28.59 2.17-.33 1.54-1.29 3.39.78 4.35 1.95.91 3.7.02 4.91-1.57 1.36-1.79.16-3.22-1.14-4.33-1.74-1.49-3.75-2.67-5.46-4.18-5.54-4.9-5.51-11.96.25-16.68 7.1-5.82 15.35-7.34 24.18-5.4 3.67.81 6.71 2.85 6.51 7.29-.17 3.74-3.65 6.9-7.88 7.29-2.65.25-5.37.47-4.98-3.64.1-1.03-.66-1.87-1.72-2.04-1.87-.3-3.69-.23-4.96 1.51-.81 1.1-.85 2.35.06 3.26 2.4 2.4 5.26 4.42 7.39 7.03 5.85 7.17 2.08 16.3-8.12 20.2-3.38 1.29-6.9 1.79-10.49 1.85Zm-.59-.74c3.23-.06 6.09-.25 8.83-1.14 5.73-1.86 10.78-4.81 12.16-11.13 1.35-6.17-2.86-9.77-7.26-13.05-1-.75-1.88-1.72-2.63-2.73-.97-1.31-.9-2.74.11-4.05 1.5-1.94 3.56-2.11 5.73-1.69 1.53.3 2.04 1.48 2.33 2.91.17.83-.5 1.96.52 2.47 3.22 1.61 8.68-.8 10.26-4.45 1.49-3.42-.09-6.86-4.39-8.06-9.17-2.58-17.78-1.07-24.98 5.32-5.5 4.88-4.82 11.47 1.08 15.9 1.54 1.15 3.18 2.19 4.61 3.45 1.61 1.42 2.76 3.22 1.17 5.28-1.44 1.88-3.51 2.87-5.84 1.8-2.45-1.12-1.62-3.28-1.19-5.21.11-.5.41-1-.24-1.39-2.19-1.32-8.07.22-10.34 2.84-2.31 2.65-3.06 5.65-.83 8.66 2.78 3.74 7 4.11 10.86 4.27Z"/><path class="cls-7" d="M101.21 128.95c-.12-.11-.24-.21-.36-.32.12.11.24.21.36.32ZM57.32 121.23h-.12l.06-.04.06.04ZM58.25 121.24h-.12l.06-.04.06.04ZM98.03 181.3l-.06.05.05-.06Z"/><path class="cls-3" d="M18.53 84.92c-2.52 3.26-4.92 6.35-8.02 8.78-1.63 1.28-3.48 2.09-5.58 1.99C.62 95.48-.8 92.93.42 87.78c1.9-7.98 5.05-15.63 6.34-23.77.13-.79.16-1.6.25-2.51 2.78 0 5.64 0 7.73 2.06 1.69 1.66.61 3.83.01 5.65-1.91 5.81-4 11.56-6.01 17.33-.11.3-.16.62-.3 1.18 4.39-4.33 7.73-9.14 10.52-14.32 1.88-3.48 3.61-7.03 5.27-10.62.53-1.15 1.1-1.43 2.31-1.31 6.05.57 7.35 2.31 5.44 8.04-1.96 5.89-4.15 11.71-5.85 17.79 1.73-2.03 3.54-3.99 5.15-6.11 1.63-2.14 3.22-4.35 4.52-6.7 2.28-4.12 4.32-8.36 6.48-12.55.13-.26.4-.68.58-.66 2.43.2 4.33 1.42 5.79 3.3 1.12 1.44.88 2.9.03 4.43-4.97 8.89-10.54 17.32-18.26 24.11-2.48 2.18-5.49 2.89-8.76 2.46-3.42-.44-4.92-2.74-4.17-6.4.28-1.35.64-2.69 1.03-4.26Z"/><path class="cls-8" d="M47.99 54.38c-3.86-.16-8.09-.53-10.86-4.27-2.23-3.01-1.48-6.01.83-8.66 2.28-2.62 8.15-4.16 10.34-2.84.65.39.35.89.24 1.39-.44 1.93-1.26 4.09 1.19 5.21 2.33 1.07 4.39.08 5.84-1.8 1.59-2.07.43-3.87-1.17-5.28-1.43-1.27-3.08-2.3-4.61-3.45-5.9-4.43-6.58-11.01-1.08-15.9 7.19-6.39 15.81-7.9 24.98-5.32 4.3 1.21 5.87 4.64 4.39 8.06-1.58 3.65-7.04 6.05-10.26 4.45-1.02-.51-.35-1.64-.52-2.47-.29-1.42-.81-2.61-2.33-2.91-2.17-.42-4.24-.25-5.73 1.69-1.01 1.32-1.08 2.74-.11 4.05.75 1.01 1.62 1.99 2.63 2.73 4.4 3.28 8.61 6.88 7.26 13.05-1.38 6.33-6.43 9.27-12.16 11.13-2.74.89-5.6 1.08-8.83 1.14Z"/><path class="cls-7" d="M125.94 124.56v-55.2h28.38v20.41c0 7.36-.02 14.73 0 22.09.01 3.54-3.2 4.15-5.27 5.5-6.97 4.56-14.73 6.89-23.12 7.2ZM78.62 87.55c9.17 0 18.36 0 27.54.03.17 0 .48.39.48.6.02 11.05.02 22.09 0 33.14 0 .11-.07.23-.1.34-13.66-4.76-30.53-20.42-27.93-34.1Z"/><text transform="translate(228.37 84.78)" style="font-size:60px;fill:#1d1d1b;font-family:HoboStd,'Hobo Std'"><tspan x="0" y="0">PREDICCIÓN DE D</tspan><tspan x="506.21" y="0" style="letter-spacing:-.02em">A</tspan><tspan x="547.01" y="0">TOS </tspan></text><text transform="translate(187.78 173.12)" style="fill:#1d1d1b;font-family:HoboStd,'Hobo Std';font-size:55px"><tspan x="0" y="0">M</tspan><tspan x="47.68" y="0" style="letter-spacing:-.02em">A</tspan><tspan x="85.08" y="0" style="letter-spacing:0">TRICULAS DEL ECUADOR </tspan></text></svg>