<svg id="png-transparent-predictive-modelling-predictive-analytics-scientific-modelling-forecasting-organization-others-miscellaneous-blue-angle___S___W_Imagen" xmlns="http://www.w3.org/2000/svg" viewBox="0 0 241.47 233.21"><defs><style>.cls-1{fill:#0a4169}.cls-4{fill:#e47533}.cls-5{fill:#0973ba}</style></defs><path d="M89.63 109.28c-9.49.92-18.27 1.42-26.92 2.76-4.17.64-6.49 4.88-9.52 7.6-12.23 10.96-24.29 22.12-36.42 33.2-.32.29-.72.48-1.32.42 11.75-10.66 23.51-21.32 35.26-31.98 3.06-2.78 6.35-5.35 9.09-8.41 2.37-2.64 5.41-2.11 8.15-2.43 6.79-.79 13.64-1.09 20.47-1.57.18-.01.38.12 1.21.41Z" style="stroke-width:2px;fill:#e47533;stroke:#e47533;stroke-miterlimit:10"/><path d="m172.72 46.59 13.96-4.04c-1.17 4.79-2.3 9.38-3.43 13.97-.09.01-.22.06-.24.03-3.02-4.51-5.55-3.44-9.32-.23-19.61 16.73-39.39 33.26-59.43 49.46-3.61 2.92-9.12 1.71-13.7 2.66-1.56.32-3.18.35-4.73.69-.72.16-1.12.14-1.24-.58-.11-.63-.03-1.16.86-1.27 4.24-.55 8.46-1.5 12.72-1.67 6.33-.26 9.59-5.17 13.76-8.55 12.53-10.15 24.82-20.59 37.22-30.9 5.79-4.82 11.59-9.64 17.4-14.45.66-.55.32-.95-.12-1.39-1.19-1.18-2.36-2.38-3.69-3.72Z" style="fill:#e47533;stroke:#e47533;stroke-miterlimit:10"/><path class="cls-5" d="M230.29 91.73c-.23 46.11-28.65 70.68-54.83 76.59-23.35 5.28-44.77-.19-63.5-15.28-3.67-2.96-7.09-6.28-9.67-10.33-20.17-31.74-20.7-62.85 4.1-92.34 11.37-13.51 26.66-21.12 44.28-23.11 22.51-2.54 42.16 4.21 58.32 20.08 14.22 13.97 21.2 31.2 21.29 44.38Zm-61.24 68.9c14.51-2.28 29.46-10.17 40.46-24.86 10.96-14.63 14.53-31.15 11.63-49.03-2.4-14.75-9.49-27.1-20.76-36.9-14.94-13-32.4-17.62-51.91-15-22.99 3.09-56.5 25.86-53.23 69.27 1.88 24.94 25.67 61.09 73.81 56.51Z"/><path class="cls-1" d="M77.7 155.89h4.41c.08.46.22.91.22 1.37.03 22.89.05 45.78.07 68.67H54.16v-70.04H77.7ZM132.15 165.8l.03 41.44c0 5.71.02 11.43.02 17.14 0 .37-.14.74-.21 1.11l-.07.06.08-.06c-.16.14-.32.42-.47.42-9.21.02-18.43.02-27.72.02v-78.2c5 5.17 10.69 9.38 17.22 12.78 3.44 1.79 7.1 3.31 10.66 4.95.15.11.31.22.46.34Z"/><path class="cls-5" d="M152.66 225.93v-54.44c9.63.41 19.02-.59 28.48-2.28v56.72h-28.48ZM36.16 225.93c-6.3 0-12.52 0-18.73-.03-.22 0-.63-.38-.63-.58-.03-15.05-.03-30.1-.03-45.23h19.39v45.84ZM203.19 36.33c-1.77-5 2.13-7.44 4.75-10.36a2142.8 2142.8 0 0 1 21.8-23.9c2.61-2.82 7.13-2.7 9.89 0 2.78 2.73 2.34 6.88-.86 10.35-7.96 8.63-15.85 17.34-23.76 26.01-1.88 2.06-4.21 2.81-6.91 2.18-2.37-.55-4.07-1.94-4.9-4.28Z"/><path class="cls-1" d="M13.63 110.44c8.08-8.91 13.3-19.54 18.24-30.33.15-.34.4-.86.65-.89 3.41-.38 6.67.16 9.55 2.1 2.18 1.47 1.95 3.72 1.46 5.9-1.74 7.84-5.5 14.98-7.96 23.49 2.06-2.5 3.71-4.38 5.22-6.36 5.69-7.47 9.89-15.79 13.74-24.29.27-.59.47-1.3 1.3-1.23 3.52.27 6.27 1.99 8.32 4.77 1.71 2.32.99 4.58-.33 6.88-6.62 11.57-13.79 22.72-24.23 31.31-3.14 2.58-7 3.3-11.02 2.72-5.02-.72-6.23-2.9-5.84-10.66-2.63 3.01-5.02 5.97-8.1 8.22-2.68 1.96-5.64 3.12-9.01 2.41-5.1-1.08-6.56-4.32-5.04-10.79 2.41-10.23 6.92-19.98 7.95-30.48.5-5.03 2.91-4.3 5.97-3.75 6 1.07 7.81 3.22 6.71 8.04-1.63 7.17-4.93 13.77-7.17 20.73-.22.68-.41 1.36-.61 2.04-.04.13-.08.27-.2.67l.4-.47Zm11.01-.42c-.49 2.03-.97 3.75-1.32 5.48-.97 4.71.96 7.66 5.36 8.23 4.2.54 8.07-.36 11.26-3.17 9.93-8.73 17.09-19.57 23.48-31 1.1-1.97 1.41-3.85-.03-5.7-1.89-2.41-4.32-3.99-7.45-4.24-.23-.02-.57.51-.75.85-2.77 5.38-5.4 10.84-8.33 16.13-1.67 3.02-3.72 5.86-5.81 8.61-2.07 2.73-4.4 5.25-6.62 7.86 2.18-7.82 5-15.3 7.52-22.88 2.45-7.37.78-9.61-7-10.34-1.56-.15-2.29.21-2.98 1.69-2.13 4.61-4.36 9.19-6.78 13.66-3.6 6.66-7.89 12.84-13.53 18.41.18-.72.25-1.13.39-1.52 2.59-7.42 5.27-14.82 7.73-22.29.77-2.34 2.15-5.13-.02-7.26-2.69-2.64-6.36-2.66-9.94-2.65-.11 1.17-.16 2.2-.32 3.22-1.67 10.47-5.71 20.3-8.16 30.57-1.58 6.62.25 9.89 5.79 10.17 2.7.13 5.08-.91 7.18-2.56 3.99-3.12 7.07-7.09 10.32-11.29Zm-1.86 3.97.06-.06s-.08-.05-.12-.06c-.01 0-.04.04-.06.06.04.02.08.05.12.07Z"/><path class="cls-4" d="M63.44 70.87c-9.52.07-15.9-3.41-17.1-9.57-.83-4.25 1.02-7.68 4.34-10.11 3.84-2.82 8.21-3.91 12.9-2.32 1.27.43 1.01 1.64.76 2.79-.43 1.98-1.66 4.36 1.01 5.59 2.51 1.17 4.76.03 6.32-2.02 1.74-2.3.21-4.14-1.47-5.57-2.24-1.91-4.82-3.43-7.02-5.37-7.13-6.3-7.08-15.38.32-21.45 9.13-7.49 19.74-9.43 31.09-6.94 4.72 1.04 8.63 3.67 8.37 9.38-.22 4.81-4.7 8.87-10.14 9.38-3.4.32-6.9.6-6.4-4.68.13-1.32-.85-2.4-2.21-2.62-2.4-.38-4.74-.3-6.38 1.94-1.04 1.42-1.09 3.02.07 4.19 3.09 3.09 6.76 5.68 9.5 9.04 7.52 9.22 2.68 20.96-10.44 25.98-4.35 1.66-8.87 2.3-13.49 2.37Zm-.76-.95c4.15-.08 7.83-.33 11.35-1.47 7.37-2.39 13.87-6.18 15.64-14.32 1.73-7.94-3.68-12.56-9.34-16.78-1.29-.96-2.42-2.22-3.38-3.52-1.25-1.68-1.16-3.52.14-5.21 1.92-2.5 4.58-2.71 7.37-2.17 1.97.38 2.62 1.91 3 3.74.22 1.07-.65 2.52.67 3.18 4.14 2.07 11.16-1.03 13.2-5.72 1.91-4.4-.11-8.82-5.64-10.37-11.79-3.32-22.87-1.37-32.12 6.84-7.07 6.28-6.2 14.75 1.39 20.44 1.98 1.48 4.09 2.81 5.93 4.44 2.06 1.82 3.55 4.14 1.5 6.8-1.86 2.42-4.51 3.69-7.51 2.32-3.15-1.44-2.09-4.22-1.53-6.7.14-.64.53-1.28-.31-1.79-2.82-1.69-10.37.29-13.3 3.65-2.97 3.41-3.93 7.27-1.06 11.14 3.57 4.81 9 5.29 13.97 5.5Z"/><path class="cls-5" d="M130.15 165.81c-.15-.14-.31-.27-.46-.41.15.14.31.27.46.41ZM73.7 155.89h-.16l.08-.05.08.05ZM74.9 155.9h-.15l.08-.05.08.05ZM126.06 233.14l-.08.07.07-.08Z"/><path class="cls-4" d="M23.83 109.2c-3.24 4.19-6.33 8.16-10.32 11.29-2.1 1.64-4.48 2.69-7.18 2.56-5.55-.28-7.37-3.54-5.79-10.17 2.44-10.26 6.49-20.1 8.16-30.57.16-1.02.21-2.06.32-3.22 3.58-.01 7.25 0 9.94 2.65 2.17 2.13.79 4.92.02 7.26-2.46 7.47-5.14 14.86-7.73 22.29-.14.39-.21.8-.39 1.52 5.65-5.57 9.94-11.75 13.53-18.41 2.41-4.47 4.65-9.04 6.78-13.66.68-1.48 1.42-1.84 2.98-1.69 7.78.73 9.45 2.98 7 10.34-2.52 7.58-5.34 15.05-7.52 22.88 2.22-2.61 4.56-5.13 6.62-7.86 2.09-2.76 4.14-5.6 5.81-8.61 2.93-5.29 5.56-10.75 8.33-16.13.17-.34.52-.87.75-.85 3.13.25 5.56 1.82 7.45 4.24 1.45 1.85 1.13 3.73.03 5.7-6.39 11.43-13.55 22.27-23.48 31-3.19 2.8-7.06 3.71-11.26 3.17-4.4-.57-6.33-3.52-5.36-8.23.36-1.74.83-3.45 1.32-5.48Z"/><path class="cls-1" d="M61.71 69.92c-4.97-.21-10.4-.68-13.97-5.5-2.87-3.87-1.91-7.73 1.06-11.14 2.93-3.37 10.48-5.35 13.3-3.65.84.5.45 1.14.31 1.79-.56 2.49-1.62 5.26 1.53 6.7 2.99 1.37 5.65.1 7.51-2.32 2.04-2.66.56-4.97-1.5-6.8-1.84-1.63-3.95-2.96-5.93-4.44-7.59-5.69-8.46-14.16-1.39-20.44 9.25-8.21 20.33-10.16 32.12-6.84 5.53 1.55 7.55 5.97 5.64 10.37-2.03 4.69-9.06 7.78-13.2 5.72-1.32-.66-.45-2.11-.67-3.18-.38-1.83-1.04-3.36-3-3.74-2.79-.54-5.45-.33-7.37 2.17-1.3 1.69-1.39 3.53-.14 5.21.96 1.3 2.09 2.56 3.38 3.52 5.66 4.22 11.07 8.84 9.34 16.78-1.77 8.14-8.27 11.93-15.64 14.32-3.52 1.14-7.2 1.39-11.35 1.47Z"/><path class="cls-5" d="M161.94 160.17V89.19h36.5v26.25c0 9.47-.02 18.94.01 28.4.02 4.55-4.12 5.33-6.78 7.07-8.96 5.86-18.94 8.86-29.73 9.26ZM101.1 112.58c11.79 0 23.6 0 35.42.03.21 0 .61.5.61.77.03 14.2.02 28.41.01 42.61 0 .14-.09.29-.13.44-17.56-6.12-39.25-26.26-35.91-43.85Z"/></svg>